<svg version="1.1" viewBox="0.0 0.0 960.0 540.0" fill="none" stroke="none" stroke-linecap="square" stroke-miterlimit="10" xmlns:xlink="http://www.w3.org/1999/xlink" xmlns="http://www.w3.org/2000/svg"><clipPath id="p.0"><path d="m0 0l960.0 0l0 540.0l-960.0 0l0 -540.0z" clip-rule="nonzero"/></clipPath><g clip-path="url(#p.0)"><path fill="#ffffff" d="m0 0l960.0 0l0 540.0l-960.0 0z" fill-rule="evenodd"/><path fill="#000000" fill-opacity="0.0" d="m174.50131 314.45657l674.01575 0" fill-rule="evenodd"/><path stroke="#8e7cc3" stroke-width="8.0" stroke-linejoin="round" stroke-linecap="butt" stroke-dasharray="8.0,24.0" d="m174.50131 314.45657l626.01575 0" fill-rule="evenodd"/><path stroke="#8e7cc3" stroke-width="8.0" stroke-linecap="butt" d="m800.5171 327.67044l36.30475 -13.213867l-36.30475 -13.213867z" fill-rule="evenodd"/><path fill="#000000" fill-opacity="0.0" d="m174.50131 314.45657l196.15747 0" fill-rule="evenodd"/><path stroke="#6aa84f" stroke-width="8.0" stroke-linejoin="round" stroke-linecap="butt" stroke-dasharray="8.0,24.0" d="m174.50131 314.45657l196.15747 0" fill-rule="evenodd"/><path fill="#000000" fill-opacity="0.0" d="m366.65878 314.4567l212.25198 0" fill-rule="evenodd"/><path stroke="#3c78d8" stroke-width="8.0" stroke-linejoin="round" stroke-linecap="butt" stroke-dasharray="8.0,24.0" d="m366.65878 314.4567l212.25198 0" fill-rule="evenodd"/><path fill="#000000" fill-opacity="0.0" d="m118.08399 122.99069l732.7244 0l0 243.59055l-732.7244 0z" fill-rule="evenodd"/><path fill="#666666" d="m197.80273 174.28131q6.9375 0 14.8125 2.265625q7.890625 2.25 14.484375 6.234375l0.171875 0l-0.171875 -7.28125l13.34375 0l-2.078125 40.390625l-11.4375 0q-1.5625 -14.5625 -8.59375 -22.1875q-7.015625 -7.625 -19.140625 -7.625q-12.3125 0 -21.0625 7.96875q-8.75 7.96875 -13.171875 20.546875q-4.421875 12.5625 -4.421875 26.421875q0 20.96875 9.1875 33.96875q9.1875 13.0 25.65625 13.0q10.921875 0 21.921875 -5.359375q11.0 -5.375 19.328125 -16.125l6.75 6.9375q-12.125 15.765625 -26.078125 21.75q-13.953125 5.96875 -27.46875 5.96875q-16.8125 0 -29.640625 -7.625q-12.828125 -7.625 -19.765625 -20.796875q-6.9375 -13.171875 -6.9375 -29.46875q0 -16.984375 7.546875 -32.921875q7.546875 -15.953125 22.1875 -26.0q14.640625 -10.0625 34.578125 -10.0625zm105.54956 35.53125q9.546875 0 24.96875 3.640625l-1.390625 9.1875q-0.34375 3.125 -3.46875 25.3125q-3.109375 22.1875 -3.109375 31.203125q0 5.015625 2.421875 5.015625q5.03125 0 8.84375 -13.6875l9.359375 2.78125q-1.90625 9.875 -7.890625 18.453125q-5.984375 8.578125 -16.203125 8.578125q-13.875 0 -13.875 -15.765625q0 -6.078125 0.703125 -10.0625l-0.171875 0q-5.90625 14.21875 -13.359375 20.03125q-7.453125 5.796875 -16.109375 5.796875q-10.0625 0 -16.5625 -8.0625q-6.5 -8.0625 -6.5 -23.484375q0 -16.125 6.234375 -29.546875q6.25 -13.4375 18.125 -21.40625q11.875 -7.984375 27.984375 -7.984375zm-6.40625 11.453125q-10.046875 0 -16.125 12.5625q-6.0625 12.5625 -6.0625 35.796875q0 7.09375 1.734375 11.171875q1.734375 4.078125 4.859375 4.078125q5.890625 0 10.828125 -9.796875q4.9375 -9.796875 8.046875 -24.34375q3.125 -14.5625 3.828125 -28.4375q-3.640625 -1.03125 -7.109375 -1.03125zm113.01654 -11.453125q12.296875 0 18.96875 9.015625q6.671875 9.015625 6.671875 24.09375q0 16.8125 -5.46875 29.734375q-5.453125 12.90625 -16.375 20.28125q-10.90625 7.359375 -27.03125 7.359375q-3.640625 0 -5.546875 -0.171875l-0.6875 14.21875q-0.53125 8.65625 -1.390625 15.59375q5.546875 -0.515625 11.4375 -0.515625l0 13.171875l-43.84375 0l0 -11.265625q5.890625 0 8.046875 -3.8125q2.171875 -3.8125 2.859375 -11.796875q6.078125 -65.515625 6.078125 -84.75q0 -5.03125 -2.609375 -5.03125q-4.5 0 -8.3125 13.6875l-9.359375 -2.765625q1.90625 -10.234375 7.53125 -18.640625q5.640625 -8.40625 15.6875 -8.40625q6.421875 0 10.3125 3.640625q3.90625 3.640625 3.90625 12.140625q0 5.03125 -0.6875 10.40625l0.171875 0q5.546875 -14.21875 13.515625 -20.203125q7.96875 -5.984375 16.125 -5.984375zm-6.421875 15.78125q-8.484375 0 -13.859375 15.78125q-5.375 15.765625 -7.8125 46.4375q3.640625 1.046875 6.9375 1.046875q9.015625 0 14.21875 -7.890625q5.203125 -7.890625 7.109375 -18.375q1.90625 -10.484375 1.90625 -19.5q0 -17.5 -8.5 -17.5zm78.3512 -15.78125q7.09375 0 13.859375 2.34375q6.765625 2.34375 11.0 6.6875q4.25 4.328125 4.25 10.046875q0 4.671875 -3.03125 8.0625q-3.03125 3.375 -7.890625 3.375q-4.5 0 -7.453125 -3.125q-2.9375 -3.125 -2.9375 -7.453125q0 -2.765625 1.03125 -5.03125q-1.375 -1.71875 -4.15625 -2.578125q-2.765625 -0.875 -5.375 -0.875q-4.15625 0 -7.890625 2.515625q-3.71875 2.5 -3.71875 6.484375q0 2.609375 1.125 4.34375q1.125 1.734375 4.328125 3.984375q3.21875 2.25 10.671875 6.578125q8.828125 5.03125 13.59375 8.328125q4.78125 3.296875 8.5 8.40625q3.734375 5.109375 3.734375 11.703125q0 7.625 -4.6875 13.6875q-4.671875 6.0625 -12.734375 9.53125q-8.0625 3.46875 -17.9375 3.46875q-12.828125 0 -21.9375 -5.546875q-9.09375 -5.546875 -9.09375 -14.5625q0 -5.203125 3.203125 -8.65625q3.203125 -3.46875 7.890625 -3.46875q4.671875 0 7.625 3.125q2.953125 3.109375 2.953125 7.609375q0 2.609375 -1.046875 5.203125q0.859375 1.734375 4.5 3.296875q3.640625 1.5625 6.421875 1.5625q7.109375 0 10.390625 -3.03125q3.296875 -3.03125 3.296875 -7.71875q0 -2.9375 -2.34375 -5.53125q-2.328125 -2.609375 -6.5 -5.203125q-4.15625 -2.609375 -8.65625 -5.03125q-13.34375 -7.625 -18.640625 -13.25q-5.28125 -5.640625 -5.28125 -14.3125q0 -6.234375 3.890625 -11.953125q3.90625 -5.734375 11.4375 -9.375q7.546875 -3.640625 17.609375 -3.640625zm77.30438 1.90625l21.65625 0l-1.03125 11.96875l-21.671875 0.34375q-1.734375 13.6875 -3.125 28.171875q-1.375 14.46875 -1.375 20.015625q0 4.671875 1.640625 8.0625q1.640625 3.375 6.671875 3.375q3.296875 0 7.71875 -2.328125q4.421875 -2.34375 7.890625 -8.59375l8.828125 5.546875q-5.71875 10.921875 -14.21875 16.46875q-8.484375 5.546875 -18.359375 5.546875q-13.0 0 -17.6875 -7.625q-4.671875 -7.625 -4.328125 -20.453125q1.046875 -22.015625 3.984375 -48.015625l-13.859375 0.171875l1.5625 -12.65625q12.125 0 18.625 -6.921875q6.5 -6.9375 8.921875 -19.25l11.625 0l-3.46875 26.171875zm84.74585 -1.90625q9.546875 0 24.96875 3.640625l-1.390625 9.1875q-0.34375 3.125 -3.46875 25.3125q-3.109375 22.1875 -3.109375 31.203125q0 5.015625 2.421875 5.015625q5.03125 0 8.84375 -13.6875l9.359375 2.78125q-1.90625 9.875 -7.890625 18.453125q-5.984375 8.578125 -16.203125 8.578125q-13.875 0 -13.875 -15.765625q0 -6.078125 0.703125 -10.0625l-0.171875 0q-5.90625 14.21875 -13.359375 20.03125q-7.453064 5.796875 -16.109314 5.796875q-10.0625 0 -16.5625 -8.0625q-6.5 -8.0625 -6.5 -23.484375q0 -16.125 6.234375 -29.546875q6.25 -13.4375 18.125 -21.40625q11.875 -7.984375 27.984314 -7.984375zm-6.40625 11.453125q-10.046814 0 -16.124939 12.5625q-6.0625 12.5625 -6.0625 35.796875q0 7.09375 1.734375 11.171875q1.734375 4.078125 4.859375 4.078125q5.890625 0 10.828064 -9.796875q4.9375 -9.796875 8.046875 -24.34375q3.125 -14.5625 3.828125 -28.4375q-3.640625 -1.03125 -7.109375 -1.03125zm112.8291 -11.453125q10.75 0 15.78125 7.03125q5.03125 7.015625 5.03125 19.671875q0 6.234375 -2.078125 21.484375q-2.265625 14.21875 -2.265625 21.671875q0 4.5 2.609375 4.5q4.5 0 8.3125 -13.6875l9.359375 2.78125q-1.03125 5.71875 -4.421875 11.953125q-3.375 6.234375 -8.921875 10.65625q-5.546875 4.421875 -12.828125 4.421875q-9.1875 0 -12.75 -4.84375q-3.546875 -4.859375 -3.546875 -14.734375q0 -7.8125 2.4375 -26.53125q0.34375 -2.9375 1.125 -10.125q0.78125 -7.203125 0.78125 -11.015625q0 -3.984375 -1.125 -5.625q-1.125 -1.65625 -3.734375 -1.65625q-5.03125 0 -10.671875 9.890625q-5.625 9.875 -9.4375 24.09375q-3.8125 14.203125 -3.8125 26.15625q0 4.171875 0.53125 12.484375l-22.359375 0q-0.53125 -4.859375 -0.53125 -8.3125q0 -5.546875 1.21875 -16.203125q1.21875 -10.671875 2.59375 -20.890625q0.359375 -3.125 1.390625 -11.359375q1.046875 -8.234375 1.046875 -11.171875q0 -4.515625 -2.4375 -4.515625q-4.5 0 -8.3125 13.6875l-9.53125 -2.765625q2.25 -10.40625 7.703125 -18.71875q5.46875 -8.328125 15.515625 -8.328125q6.421875 0 10.484375 3.640625q4.078125 3.640625 4.078125 12.140625q0 3.296875 -0.4375 6.15625q-0.421875 2.859375 -0.609375 4.25l0.1875 0q10.21875 -26.1875 29.625 -26.1875z" fill-rule="nonzero"/><path fill="#000000" fill-opacity="0.0" d="m194.39445 162.83539l0 0c-37.05269 -2.2457733 -69.41836 27.442978 -74.26842 68.12579c-4.850067 40.6828 19.451965 78.6326 55.76506 87.08212l14.618088 -76.82164z" fill-rule="evenodd"/><path fill="#000000" fill-opacity="0.0" d="m194.39445 162.83539l0 0c-37.05269 -2.2457733 -69.41836 27.442978 -74.26842 68.12579c-4.850067 40.6828 19.451965 78.6326 55.76506 87.08212" fill-rule="evenodd"/><path stroke="#cc4125" stroke-width="8.0" stroke-linejoin="round" stroke-linecap="butt" stroke-dasharray="8.0,24.0" d="m194.39445 162.83539l0 0c-37.05269 -2.2457733 -69.41836 27.442978 -74.26842 68.12579c-4.850067 40.6828 19.451965 78.6326 55.76506 87.08212" fill-rule="evenodd"/></g></svg>